# xmcd
#
# Track frame offsets:
#	150
#	21876
#	42545
#	64019
#	80850
#	106161
#	125463
#
# Disc length: 1987 seconds
#
# Revision: 1
# Processed by: cddbd v1.4PL0 Copyright (c) Steve Scherf et al.
# Submitted via: CDmax 1.8
#
DISCID=5b07c107
DTITLE=Stephanie Mills - Stephanie
DYEAR=1981
DGENRE=R and B Soul
TTITLE0=Winner
TTITLE1=Two Hearts
TTITLE2=Don't stop doin' what cha do
TTITLE3=Top of my list
TTITLE4=Night Games
TTITLE5=My love's been good to you
TTITLE6=Magic
EXTD=
EXTT0=
EXTT1=
EXTT2=
EXTT3=
EXTT4=
EXTT5=
EXTT6=
PLAYORDER=
